PathFileType	4	(X/Y/Z)	7_coords_data.trc
DataRate	CameraRate	NumFrames	NumMarkers	Units	OrigDataRate	OrigDataStartFrame	OrigNumFrames
30.0	30.0	8	21	m	30.0	11	50
Frame#	Time	THUMB_TIP	THUMB_IP	THUMB_MCP	THUMB_CMC	INDEX_TIP	INDEX_DIP	INDEX_PIP	INDEX_MCP	MIDDLE_TIP	MIDDLE_DIP	MIDDLE_PIP	MIDDLE_MCP	RING_TIP	RING_DIP	RING_PIP	RING_MCP	PINKY_TIP	PINKY_DIP	PINKY_PIP	PINKY_MCP	WRIST
X1	Y1	Z1	X2	Y2	Z2	X3	Y3	Z3	X4	Y4	Z4	X5	Y5	Z5	X6	Y6	Z6	X7	Y7	Z7	X8	Y8	Z8	X9	Y9	Z9	X10	Y10	Z10	X11	Y11	Z11	X12	Y12	Z12	X13	Y13	Z13	X14	Y14	Z14	X15	Y15	Z15	X16	Y16	Z16	X17	Y17	Z17	X18	Y18	Z18	X19	Y19	Z19	X20	Y20	Z20	X21	Y21	Z21
10	0.3333333333333333	0.01141160011291504	0.013371999740600587	0.998594970703125	-0.002691349983215332	-0.003212549924850464	1.00875	-0.029008100509643555	-0.005032390117645264	1.020489990234375	-0.04350930023193359	0.01567479991912842	1.0308900146484374	-0.016996000289916994	-0.006839859962463379	0.8930980224609375	-0.024156499862670898	-0.006680580139160156	0.9150709838867187	-0.031031299591064453	-0.005524439811706543	0.93752197265625	-0.039339401245117187	-0.000438704997301101	0.97327099609375	-0.0083372802734375	-0.000943014025688171	0.99506298828125	0.006307660102844238	0.0032108700275421138	0.9842169799804688	0.0021412100791931153	0.013175299644470215	0.9607639770507812	-0.037049999237060545	0.022700199127197264	0.9660850219726562	0.000768985986709594	0.015241800308227539	1.0023800048828124	0.009227729797363282	0.02260960006713867	0.9876690063476562	0.004482920169830322	0.03505530166625977	0.96652197265625	-0.03254359817504883	0.042946701049804685	0.974093994140625	0.000791225016117096	0.08178690338134766	0.9378660278320312	-0.004854509830474854	0.0725270004272461	0.9538599853515625	-0.010216699600219727	0.0641365966796875	0.967802001953125	-0.018956399917602538	0.05185240173339844	0.9887260131835938	-0.06820939636230469	0.03821319961547852	1.037780029296875
11	0.36666666666666664	0.011836400032043457	0.01313920021057129	0.9973770141601562	-0.002442300081253051	-0.003189980030059814	1.0080800170898438	-0.028880399703979494	-0.0048538799285888674	1.019989990234375	-0.04304800033569336	0.015731599807739256	1.030489990234375	-0.0169783992767334	-0.006396729946136475	0.8927680053710938	-0.0242716007232666	-0.006206590175628662	0.9147030029296875	-0.03121660041809082	-0.00505210018157959	0.9371110229492188	-0.03941910171508789	-3.8879200816154e-05	0.9728099975585938	-0.008458930015563965	-0.00021280799806118	0.9951649780273437	0.006305349826812744	0.00340145993232727	0.9834359741210937	0.002132129907608032	0.013442299842834472	0.9605780029296875	-0.03715800094604492	0.02307789993286133	0.9657490234375	0.0006715229749679561	0.01530679988861084	1.0015800170898437	0.009148150444030763	0.02278380012512207	0.9871290283203125	0.004554480075836182	0.03531290054321289	0.9661069946289063	-0.032607498168945315	0.0433297004699707	0.9739119873046875	0.0009554690122604372	0.08220780181884765	0.9377459716796875	-0.004690499782562256	0.07294129943847656	0.95372998046875	-0.010033300399780273	0.06451570129394531	0.9675919799804688	-0.01883289909362793	0.05212379837036133	0.9884210205078126	-0.06795909881591797	0.038477500915527346	1.03768994140625
12	0.4	0.011684200286865235	0.013658699989318847	0.99735400390625	-0.0024485599994659418	-0.0027874000072479247	1.0076500244140625	-0.028680700302124024	-0.004455760002136231	1.0196900024414062	-0.04275080108642578	0.015966300010681153	1.030219970703125	-0.0169468994140625	-0.006079100131988526	0.8925280151367188	-0.024260799407958986	-0.0058723602294921875	0.914510009765625	-0.03119650077819824	-0.00472022008895874	0.93693798828125	-0.03930839920043945	0.000253105998039245	0.9726539916992187	-0.008714249610900879	4.020589962601601e-05	0.9949329833984375	0.006217319965362549	0.003971760034561157	0.9832670288085937	0.002063369989395141	0.013949199676513672	0.9600059814453125	-0.037214401245117185	0.023393800735473633	0.9655369873046875	9.2663697898387e-05	0.015911499977111818	1.0020900268554687	0.009319299697875977	0.02324180030822754	0.986593017578125	0.004526659965515136	0.03576979827880859	0.9657979736328125	-0.03259030151367188	0.04360580062866211	0.9736890258789063	0.001062479972839355	0.08267489624023437	0.9377349853515625	-0.004639820098876953	0.07334750366210938	0.953697021484375	-0.010024499893188477	0.06486730194091797	0.9675150146484375	-0.018839099884033202	0.052408401489257815	0.9882570190429687	-0.06758399963378907	0.038609500885009765	1.03747998046875
13	0.43333333333333335	0.011892200469970703	0.013307000160217285	0.9972410278320313	-0.002566390037536621	-0.002869800090789795	1.00775	-0.028775600433349608	-0.004640749931335449	1.01947998046875	-0.04282289886474609	0.01595479965209961	1.0302099609375	-0.016638500213623047	-0.006115129947662353	0.8924760131835937	-0.02406730079650879	-0.005911340236663818	0.9143909912109375	-0.031074100494384766	-0.004756499767303466	0.9368170166015625	-0.039227901458740236	0.00019811800122261002	0.9724619750976562	-0.008091050148010254	-0.00021182599663734404	0.9946690063476562	0.006474219799041748	0.0036982500553131097	0.98306201171875	0.0021552801132202148	0.013867099761962891	0.9599290161132813	-0.03703620147705078	0.02328849983215332	0.965447998046875	0.000615311980247497	0.01593850040435791	1.0021500244140624	0.009432029724121094	0.02305780029296875	0.9865969848632813	0.0047223100662231446	0.035630401611328126	0.9657849731445313	-0.03243619918823242	0.04352199935913086	0.97364599609375	0.0017298699617385859	0.0825790023803711	0.938	-0.004125329971313476	0.07326329803466797	0.9538870239257813	-0.009641719818115234	0.06476860046386719	0.9675989990234375	-0.01867099952697754	0.052255298614501955	0.988291015625	-0.06752429962158203	0.038552799224853516	1.037280029296875
14	0.4666666666666667	0.01219219970703125	0.013065099716186523	0.9969000244140624	-0.0025836899280548093	-0.0032312500476837157	1.00777001953125	-0.02869849967956543	-0.005007259845733643	1.019510009765625	-0.04283369827270508	0.015629799842834472	1.0300999755859375	-0.01653809928894043	-0.006473569869995117	0.892510986328125	-0.024056299209594727	-0.006234529972076416	0.914333984375	-0.031151800155639647	-0.005073040008544922	0.9367139892578125	-0.039348098754882814	-0.00010683800280094101	0.972406005859375	-0.008455909729003907	-0.0008610090017318721	0.9942410278320313	0.00644310998916626	0.0033945600986480706	0.9829869995117188	0.0021696000099182128	0.01349149990081787	0.9597739868164062	-0.03701910018920898	0.02298699951171875	0.9654320068359376	0.00012593099474906901	0.015376899719238281	1.002239990234375	0.009555359840393067	0.022599000930786133	0.9866270141601563	0.004849339962005615	0.03513249969482422	0.9657789916992188	-0.032232601165771486	0.04314839935302734	0.9736290283203125	0.002134639978408813	0.08212480163574219	0.9381069946289062	-0.003818979978561401	0.07280999755859376	0.9539929809570312	-0.009409049987792968	0.0643396987915039	0.9676530151367188	-0.018523799896240235	0.0518583984375	0.9883209838867187	-0.06749019622802735	0.03829410171508789	1.03743994140625
15	0.5	0.012002799987792969	0.013034799575805663	0.9976439819335937	-0.0024442999362945554	-0.003267260074615478	1.008260009765625	-0.028572599411010743	-0.005192930221557617	1.0196900024414062	-0.04301359939575195	0.01544099998474121	1.0301800537109376	-0.016072500228881837	-0.006971310138702393	0.8926810302734375	-0.023593999862670897	-0.006677609920501709	0.9144760131835937	-0.030732000350952148	-0.005465620040893555	0.9368829956054687	-0.038971199035644534	-0.00042716199159622105	0.9725380249023438	-0.008278129577636718	-0.000393736004829406	0.9956589965820313	0.00670644998550415	0.00336624002456665	0.9837109985351562	0.002481359958648681	0.013120400428771972	0.9600579833984375	-0.03672980117797851	0.022600999832153322	0.9655399780273437	0.00137634003162384	0.015143699645996093	1.001489990234375	0.009689200401306152	0.022412399291992187	0.9870869750976563	0.005097780227661133	0.03483810043334961	0.9660469970703125	-0.03210400009155273	0.042839900970458984	0.9737429809570313	0.002749919891357422	0.08162030029296875	0.9383679809570312	-0.003409499883651733	0.0723551025390625	0.954208984375	-0.009135149955749511	0.06394219970703124	0.967885986328125	-0.018398300170898437	0.05155659866333008	0.9884849853515625	-0.06790339660644532	0.03810919952392578	1.0371700439453124
16	0.5333333333333333	0.012336700439453126	0.01309440040588379	0.9984619750976562	-0.0015771800279617309	-0.003324870109558105	1.0083699951171874	-0.028517799377441408	-0.005112060070037842	1.020280029296875	-0.04276359939575195	0.015310099601745605	1.0304000244140625	-0.015261799812316894	-0.0067454099655151365	0.8929710083007812	-0.022714599609375	-0.0065771698951721195	0.9148460083007812	-0.029857999801635744	-0.0054699301719665526	0.93725	-0.0382140998840332	-0.000545056998729705	0.9728709716796875	-0.007781119823455811	-0.0007014080286026002	0.9953939819335937	0.006987559795379639	0.003399110078811645	0.98425	0.0033168001174926757	0.013035599708557128	0.9609010009765625	-0.0358661003112793	0.02250589942932129	0.9658989868164063	0.001138389945030212	0.015423399925231934	1.0033099975585937	0.010165399551391601	0.02260759925842285	0.987875	0.00575147008895874	0.03485390090942383	0.9668460083007813	-0.03141309928894043	0.04276229858398437	0.9740809936523438	0.003739069938659668	0.08169029998779297	0.9392990112304688	-0.00256439995765686	0.0724104995727539	0.955010986328125	-0.00850175952911377	0.06396810150146484	0.9685590209960937	-0.01799180030822754	0.0515453987121582	0.988906005859375	-0.06787750244140625	0.03795690155029297	1.0370799560546875
17	0.5666666666666667	0.012503499984741212	0.013414999961853028	0.9988900146484375	-0.001847100019454956	-0.003173059940338134	1.0089099731445312	-0.02814889907836914	-0.004994029998779297	1.020530029296875	-0.042961299896240236	0.015497599601745606	1.0306500244140624	-0.015261699676513672	-0.0065508499145507815	0.8929810180664063	-0.02255299949645996	-0.0064197201728820805	0.9149580078125	-0.02957270050048828	-0.005366549968719482	0.9374210205078125	-0.03786690139770508	-0.00045906800031661905	0.97306298828125	-0.007586480140686035	-0.000619199991226196	0.9951829833984375	0.007425010204315185	0.0035613000392913817	0.9843300170898438	0.003599900007247925	0.013220199584960938	0.961093017578125	-0.03552059936523438	0.022574499130249025	0.9659810180664062	0.0017947100400924681	0.01546940040588379	1.003	0.010390800476074219	0.02280069923400879	0.9880819702148438	0.005835700035095215	0.035157100677490234	0.9669000244140625	-0.031218799591064453	0.04281740188598633	0.974239013671875	0.003847179889678955	0.0819821014404297	0.93956201171875	-0.002499560117721557	0.07265470123291015	0.9552639770507813	-0.008390469551086426	0.06417120361328126	0.9687899780273438	-0.017871599197387695	0.051667800903320314	0.9890599975585938	-0.06803260040283203	0.03800320053100586	1.0373599853515625
